<svg width="48" height="48" viewBox="0 0 48 48" fill="none" xmlns="http://www.w3.org/2000/svg">
<path d="M23.9999 40C23.9999 40 35.9999 28.628 35.9999 20C35.9999 16.8174 34.7357 13.7652 32.4852 11.5147C30.2348 9.26428 27.1825 8 23.9999 8C20.8173 8 17.7651 9.26428 15.5147 11.5147C13.2642 13.7652 11.9999 16.8174 11.9999 20C11.9999 28.628 23.9999 40 23.9999 40ZM23.9999 26C22.4086 26 20.8825 25.3679 19.7573 24.2426C18.6321 23.1174 17.9999 21.5913 17.9999 20C17.9999 18.4087 18.6321 16.8826 19.7573 15.7574C20.8825 14.6321 22.4086 14 23.9999 14C25.5912 14 27.1174 14.6321 28.2426 15.7574C29.3678 16.8826 29.9999 18.4087 29.9999 20C29.9999 21.5913 29.3678 23.1174 28.2426 24.2426C27.1174 25.3679 25.5912 26 23.9999 26Z" fill="black"/>
</svg>
