<svg width="48" height="48" viewBox="0 0 48 48" fill="none" xmlns="http://www.w3.org/2000/svg">
<path fill-rule="evenodd" clip-rule="evenodd" d="M29.1646 5.31712C29.67 5.52649 30.1292 5.83336 30.5161 6.22021L32.3632 8.06496C33.3296 9.03137 33.163 10.412 32.6964 11.2689C32.3886 11.8331 32.2717 12.4818 32.3633 13.1179C32.4549 13.7541 32.7499 14.3434 33.2044 14.7979C33.6589 15.2524 34.2483 15.5475 34.8844 15.639C35.5206 15.7306 36.1693 15.6137 36.7334 15.3059C37.5904 14.837 38.9686 14.6727 39.935 15.6391L41.7797 17.4839C42.1666 17.8707 42.4734 18.3299 42.6828 18.8353C42.8922 19.3407 42.9999 19.8825 42.9999 20.4295C42.9999 20.9766 42.8922 21.5183 42.6828 22.0237C42.4734 22.5291 42.1666 22.9884 41.7797 23.3752L37.4916 27.6633L37.1582 27.3299C36.7677 26.9393 36.1345 26.9393 35.744 27.3299C35.3535 27.7204 35.3535 28.3536 35.744 28.7441L36.0774 29.0775L23.3751 41.7798C22.9883 42.1666 22.5291 42.4735 22.0236 42.6829C21.5182 42.8922 20.9765 43 20.4295 43C19.8824 43 19.3407 42.8922 18.8353 42.6829C18.3299 42.4735 17.8706 42.1666 17.4838 41.7798L15.6391 39.9374C14.6727 38.9686 14.8369 37.588 15.3058 36.7311C15.6137 36.1669 15.7305 35.5182 15.639 34.8821C15.5474 34.2459 15.2523 33.6565 14.7979 33.2021C14.3434 32.7476 13.754 32.4525 13.1178 32.361C12.4817 32.2694 11.833 32.3863 11.2688 32.6941C10.4119 33.163 9.03369 33.3297 8.0649 32.3609L6.22015 30.5161C5.8333 30.1293 5.52643 29.6701 5.31706 29.1647C5.1077 28.6592 4.99994 28.1175 4.99994 27.5705C4.99994 27.0234 5.1077 26.4817 5.31707 25.9763C5.52643 25.4709 5.8333 25.0116 6.22015 24.6248L18.9225 11.9225L20.2559 13.2559C20.6464 13.6464 21.2796 13.6464 21.6701 13.2559C22.0606 12.8654 22.0606 12.2322 21.6701 11.8417L20.3367 10.5083L24.6248 6.22021C25.0116 5.83336 25.4708 5.52649 25.9762 5.31712C26.4816 5.10776 27.0234 5 27.5704 5C28.1175 5 28.6592 5.10776 29.1646 5.31712ZM21.06 9.85111C21.1386 9.77246 21.2338 9.72043 21.3343 9.69501L20.9039 10.1255C20.9293 10.0249 20.9813 9.92975 21.06 9.85111ZM24.7677 14.9393C24.3772 14.5488 23.744 14.5488 23.3535 14.9393C22.963 15.3299 22.963 15.963 23.3535 16.3536L26.4511 19.4512C26.8416 19.8417 27.4748 19.8417 27.8653 19.4512C28.2559 19.0607 28.2559 18.4275 27.8653 18.037L24.7677 14.9393ZM30.963 21.1346C30.5724 20.7441 29.9393 20.7441 29.5488 21.1346C29.1582 21.5251 29.1582 22.1583 29.5488 22.5488L32.6464 25.6464C33.0369 26.037 33.6701 26.037 34.0606 25.6464C34.4511 25.2559 34.4511 24.6228 34.0606 24.2322L30.963 21.1346Z" fill="black"/>
</svg>
